<svg
    width="200px"
    height="200px"
    viewBox="0 0 256 256"
    version="1.1"
    xmlns="http://www.w3.org/2000/svg"
    xmlns:xlink="http://www.w3.org/1999/xlink"
    fill="none"
>
    <circle fill="#61DAFB" cx="128" cy="128" r="18"></circle>
    <path
        stroke="#61DAFB"
        stroke-width="10"
        d="M128,80 C170,80 204,100 204,128 C204,156 170,176 128,176 C86,176 52,156 52,128 C52,100 86,80 128,80 Z"
    ></path>
    <path
        stroke="#61DAFB"
        stroke-width="10"
        d="M94,98 C113,60 135,32 144,32 C153,32 175,60 194,98 C213,136 224,168 216,184 C208,200 180,196 144,184 C108,172 80,160 72,144 C64,128 75,114 94,98 Z"
    ></path>
    <path
        stroke="#61DAFB"
        stroke-width="10"
        d="M94,158 C75,142 64,128 72,112 C80,96 108,84 144,72 C180,60 208,56 216,72 C224,88 213,120 194,158 C175,196 153,224 144,224 C135,224 113,196 94,158 Z"
    ></path>
</svg>
